<svg width="227" height="227" xmlns="http://www.w3.org/2000/svg" xmlns:xlink="http://www.w3.org/1999/xlink" overflow="hidden"><defs><clipPath id="clip0"><rect x="0" y="0" width="227" height="227"/></clipPath><radialGradient cx="0.03125" cy="542526" r="774008" fx="0" gradientUnits="userSpaceOnUse" spreadMethod="pad" id="fill1" gradientTransform="matrix(0.000105064 0 0 0.000105064 20.5 102.5)"><stop offset="0" stop-color="#F2F2F2"/><stop offset="0.75" stop-color="#96F694"/><stop offset="1" stop-color="#6EF36B"/></radialGradient><linearGradient x1="55.8119" y1="117.061" x2="129.713" y2="79.6801" gradientUnits="userSpaceOnUse" spreadMethod="reflect" id="fill2"><stop offset="0" stop-color="#F2F2F2"/><stop offset="0.75" stop-color="#96F694"/><stop offset="1" stop-color="#6EF36B"/></linearGradient><radialGradient cx="0" cy="552045" r="780709" fy="552045" gradientUnits="userSpaceOnUse" spreadMethod="pad" id="fill3" gradientTransform="matrix(0.000105064 0 0 0.000105064 95.5 48.5)"><stop offset="0" stop-color="#F2F2F2"/><stop offset="0.75" stop-color="#96F694"/><stop offset="1" stop-color="#6EF36B"/></radialGradient><linearGradient x1="131.901" y1="169.531" x2="158.796" y2="89.3564" gradientUnits="userSpaceOnUse" spreadMethod="reflect" id="fill4"><stop offset="0" stop-color="#F2F2F2"/><stop offset="0.75" stop-color="#96F694"/><stop offset="1" stop-color="#6EF36B"/></linearGradient><radialGradient cx="0" cy="552044" r="780708" gradientUnits="userSpaceOnUse" spreadMethod="pad" id="fill5" gradientTransform="matrix(0.000105064 0 0 0.000105064 131.5 135.5)"><stop offset="0" stop-color="#F2F2F2"/><stop offset="0.75" stop-color="#96F694"/><stop offset="1" stop-color="#6EF36B"/></radialGradient></defs><g clip-path="url(#clip0)"><rect x="0" y="0" width="227" height="227" fill="#FFFFFF"/><rect x="0" y="0" width="227" height="227" fill="#292929"/><g><g><g><path d="M41 53C34.4 53 29 47.6 29 41 29 34.4 34.4 29 41 29 47.6 29 53 34.4 53 41 53 47.6 47.6 53 41 53ZM68 33.5C67.4 31.3 66.5 29.2 65.4 27.3L67.9 19.8 62.2 14.1 54.7 16.6C52.7 15.5 50.6 14.6 48.4 14L45 7.00001 37 7.00001 33.5 14C31.3 14.6 29.2 15.5 27.3 16.6L19.8 14.1 14.1 19.8 16.6 27.3C15.5 29.3 14.6 31.4 14 33.6L7.00001 37 7.00001 45 14 48.5C14.6 50.7 15.5 52.8 16.6 54.7L14.1 62.2 19.8 67.9 27.3 65.4C29.3 66.5 31.4 67.4 33.6 68L37.1 75 45.1 75 48.6 68C50.8 67.4 52.9 66.5 54.8 65.4L62.3 67.9 68 62.2 65.5 54.7C66.6 52.7 67.5 50.6 68.1 48.4L75.1 44.9 75.1 36.9 68 33.5Z"/></g></g></g><g><g><g><path d="M48 60C41.4 60 36 54.6 36 48 36 41.4 41.4 36 48 36 54.6 36 60 41.4 60 48 60 54.6 54.6 60 48 60ZM75 40.5C74.4 38.3 73.5 36.2 72.4 34.3L74.9 26.8 69.2 21.1 61.7 23.6C59.7 22.5 57.6 21.6 55.4 21L52 14 44 14 40.5 21C38.3 21.6 36.2 22.5 34.3 23.6L26.8 21.1 21.1 26.8 23.6 34.3C22.5 36.3 21.6 38.4 21 40.6L14 44 14 52 21 55.5C21.6 57.7 22.5 59.8 23.6 61.7L21.1 69.2 26.8 74.9 34.3 72.4C36.3 73.5 38.4 74.4 40.6 75L44.1 82 52.1 82 55.6 75C57.8 74.4 59.9 73.5 61.8 72.4L69.3 74.9 75 69.2 72.5 61.7C73.6 59.7 74.5 57.6 75.1 55.4L82.1 51.9 82.1 43.9 75 40.5Z" transform="matrix(1.01042 0 0 1 65 -7)"/></g></g></g><g><g><g><path d="M187 53C180.4 53 175 47.6 175 41 175 34.4 180.4 29 187 29 193.6 29 199 34.4 199 41 199 47.6 193.6 53 187 53ZM214 33.5C213.4 31.3 212.5 29.2 211.4 27.3L213.9 19.8 208.2 14.1 200.7 16.6C198.7 15.5 196.6 14.6 194.4 14L191 7.00001 183 7.00001 179.5 14C177.3 14.6 175.2 15.5 173.3 16.6L165.8 14.1 160.1 19.8 162.6 27.3C161.5 29.3 160.6 31.4 160 33.6L153 37 153 45 160 48.5C160.6 50.7 161.5 52.8 162.6 54.7L160.1 62.2 165.8 67.9 173.3 65.4C175.3 66.5 177.4 67.4 179.6 68L183.1 75 191.1 75 194.6 68C196.8 67.4 198.9 66.5 200.8 65.4L208.3 67.9 214 62.2 211.5 54.7C212.6 52.7 213.5 50.6 214.1 48.4L221.1 44.9 221.1 36.9 214 33.5Z"/></g></g></g><g><g><g><path d="M41 125C34.4 125 29 119.6 29 113 29 106.4 34.4 101 41 101 47.6 101 53 106.4 53 113 53 119.6 47.6 125 41 125ZM68 105.5C67.4 103.3 66.5 101.2 65.4 99.3L67.9 91.8 62.2 86.1 54.7 88.6C52.7 87.5 50.6 86.6 48.4 86L45 79 37 79 33.5 86C31.3 86.6 29.2 87.5 27.3 88.6L19.8 86.1 14.1 91.8 16.6 99.3C15.5 101.3 14.6 103.4 14 105.6L7.00001 109 7.00001 117 14 120.5C14.6 122.7 15.5 124.8 16.6 126.7L14.1 134.2 19.8 139.9 27.3 137.4C29.3 138.5 31.4 139.4 33.6 140L37.1 147 45.1 147 48.6 140C50.8 139.4 52.9 138.5 54.8 137.4L62.3 139.9 68 134.2 65.5 126.7C66.6 124.7 67.5 122.6 68.1 120.4L75.1 116.9 75.1 108.9 68 105.5Z"/></g></g></g><g><g><g><path d="M48 60C41.4 60 36 54.6 36 48 36 41.4 41.4 36 48 36 54.6 36 60 41.4 60 48 60 54.6 54.6 60 48 60ZM75 40.5C74.4 38.3 73.5 36.2 72.4 34.3L74.9 26.8 69.2 21.1 61.7 23.6C59.7 22.5 57.6 21.6 55.4 21L52 14 44 14 40.5 21C38.3 21.6 36.2 22.5 34.3 23.6L26.8 21.1 21.1 26.8 23.6 34.3C22.5 36.3 21.6 38.4 21 40.6L14 44 14 52 21 55.5C21.6 57.7 22.5 59.8 23.6 61.7L21.1 69.2 26.8 74.9 34.3 72.4C36.3 73.5 38.4 74.4 40.6 75L44.1 82 52.1 82 55.6 75C57.8 74.4 59.9 73.5 61.8 72.4L69.3 74.9 75 69.2 72.5 61.7C73.6 59.7 74.5 57.6 75.1 55.4L82.1 51.9 82.1 43.9 75 40.5Z" transform="matrix(1.01042 0 0 1 65 65)"/></g></g></g><g><g><g><path d="M187 125C180.4 125 175 119.6 175 113 175 106.4 180.4 101 187 101 193.6 101 199 106.4 199 113 199 119.6 193.6 125 187 125ZM214 105.5C213.4 103.3 212.5 101.2 211.4 99.3L213.9 91.8 208.2 86.1 200.7 88.6C198.7 87.5 196.6 86.6 194.4 86L191 79 183 79 179.5 86C177.3 86.6 175.2 87.5 173.3 88.6L165.8 86.1 160.1 91.8 162.6 99.3C161.5 101.3 160.6 103.4 160 105.6L153 109 153 117 160 120.5C160.6 122.7 161.5 124.8 162.6 126.7L160.1 134.2 165.8 139.9 173.3 137.4C175.3 138.5 177.4 139.4 179.6 140L183.1 147 191.1 147 194.6 140C196.8 139.4 198.9 138.5 200.8 137.4L208.3 139.9 214 134.2 211.5 126.7C212.6 124.7 213.5 122.6 214.1 120.4L221.1 116.9 221.1 108.9 214 105.5Z"/></g></g></g><g><g><g><path d="M41 197C34.4 197 29 191.6 29 185 29 178.4 34.4 173 41 173 47.6 173 53 178.4 53 185 53 191.6 47.6 197 41 197ZM68 177.5C67.4 175.3 66.5 173.2 65.4 171.3L67.9 163.8 62.2 158.1 54.7 160.6C52.7 159.5 50.6 158.6 48.4 158L45 151 37 151 33.5 158C31.3 158.6 29.2 159.5 27.3 160.6L19.8 158.1 14.1 163.8 16.6 171.3C15.5 173.3 14.6 175.4 14 177.6L7.00001 181 7.00001 189 14 192.5C14.6 194.7 15.5 196.8 16.6 198.7L14.1 206.2 19.8 211.9 27.3 209.4C29.3 210.5 31.4 211.4 33.6 212L37.1 219 45.1 219 48.6 212C50.8 211.4 52.9 210.5 54.8 209.4L62.3 211.9 68 206.2 65.5 198.7C66.6 196.7 67.5 194.6 68.1 192.4L75.1 188.9 75.1 180.9 68 177.5Z"/></g></g></g><g><g><g><path d="M48 60C41.4 60 36 54.6 36 48 36 41.4 41.4 36 48 36 54.6 36 60 41.4 60 48 60 54.6 54.6 60 48 60ZM75 40.5C74.4 38.3 73.5 36.2 72.4 34.3L74.9 26.8 69.2 21.1 61.7 23.6C59.7 22.5 57.6 21.6 55.4 21L52 14 44 14 40.5 21C38.3 21.6 36.2 22.5 34.3 23.6L26.8 21.1 21.1 26.8 23.6 34.3C22.5 36.3 21.6 38.4 21 40.6L14 44 14 52 21 55.5C21.6 57.7 22.5 59.8 23.6 61.7L21.1 69.2 26.8 74.9 34.3 72.4C36.3 73.5 38.4 74.4 40.6 75L44.1 82 52.1 82 55.6 75C57.8 74.4 59.9 73.5 61.8 72.4L69.3 74.9 75 69.2 72.5 61.7C73.6 59.7 74.5 57.6 75.1 55.4L82.1 51.9 82.1 43.9 75 40.5Z" transform="matrix(1.01042 0 0 1 65 137)"/></g></g></g><g><g><g><path d="M187 197C180.4 197 175 191.6 175 185 175 178.4 180.4 173 187 173 193.6 173 199 178.4 199 185 199 191.6 193.6 197 187 197ZM214 177.5C213.4 175.3 212.5 173.2 211.4 171.3L213.9 163.8 208.2 158.1 200.7 160.6C198.7 159.5 196.6 158.6 194.4 158L191 151 183 151 179.5 158C177.3 158.6 175.2 159.5 173.3 160.6L165.8 158.1 160.1 163.8 162.6 171.3C161.5 173.3 160.6 175.4 160 177.6L153 181 153 189 160 192.5C160.6 194.7 161.5 196.8 162.6 198.7L160.1 206.2 165.8 211.9 173.3 209.4C175.3 210.5 177.4 211.4 179.6 212L183.1 219 191.1 219 194.6 212C196.8 211.4 198.9 210.5 200.8 209.4L208.3 211.9 214 206.2 211.5 198.7C212.6 196.7 213.5 194.6 214.1 192.4L221.1 188.9 221.1 180.9 214 177.5Z"/></g></g></g><path d="M20.5 131C20.5 115.26 33.4837 102.5 49.5 102.5 65.5163 102.5 78.5001 115.26 78.5001 131 78.5001 146.74 65.5163 159.5 49.5 159.5 33.4837 159.5 20.5 146.74 20.5 131Z" stroke="#FFFFFF" stroke-width="5.33725" stroke-miterlimit="8" fill="url(#fill1)" fill-rule="evenodd"/><path d="M74.7332 124.542C70.2508 127.899 63.8957 126.987 60.5386 122.505L60.5386 122.505C57.1816 118.022 58.0938 111.667 62.5762 108.31L110.792 72.1989C115.274 68.8419 121.63 69.7541 124.987 74.2365L124.987 74.2365C128.344 78.7189 127.431 85.074 122.949 88.431Z" stroke="#FFFFFF" stroke-width="5.33725" stroke-miterlimit="8" fill="url(#fill2)" fill-rule="evenodd"/><path d="M95.5 77.5C95.5 61.4837 108.484 48.5 124.5 48.5 140.516 48.5 153.5 61.4837 153.5 77.5 153.5 93.5163 140.516 106.5 124.5 106.5 108.484 106.5 95.5 93.5163 95.5 77.5Z" stroke="#FFFFFF" stroke-width="5.33725" stroke-miterlimit="8" fill="url(#fill3)" fill-rule="evenodd"/><path d="M168.155 159.75C170.203 164.962 167.638 170.848 162.426 172.896L162.426 172.896C157.214 174.944 151.328 172.38 149.28 167.168L122.543 99.1376C120.495 93.9256 123.059 88.0398 128.272 85.9913L128.272 85.9915C133.484 83.9431 139.369 86.5077 141.418 91.7197Z" stroke="#FFFFFF" stroke-width="5.33725" stroke-miterlimit="8" fill="url(#fill4)" fill-rule="evenodd"/><path d="M131.5 164.5C131.5 148.484 144.484 135.5 160.5 135.5 176.516 135.5 189.5 148.484 189.5 164.5 189.5 180.516 176.516 193.5 160.5 193.5 144.484 193.5 131.5 180.516 131.5 164.5Z" stroke="#FFFFFF" stroke-width="5.33725" stroke-miterlimit="8" fill="url(#fill5)" fill-rule="evenodd"/><rect x="4.5" y="4.5" width="219" height="219" stroke="#F2F2F2" stroke-width="0.667156" stroke-miterlimit="8" fill="none"/></g></svg>